<?xml version="1.0" standalone="no"?><svg xmlns="http://www.w3.org/2000/svg" viewBox="0 0 1440 320"><path fill=" #00C2E0" fill-opacity="1" d="M0,96L30,117.3C60,139,120,181,180,186.7C240,192,300,160,360,154.7C420,149,480,171,540,192C600,213,660,235,720,234.7C780,235,840,213,900,176C960,139,1020,85,1080,90.7C1140,96,1200,160,1260,160C1320,160,1380,96,1410,64L1440,32L1440,320L1410,320C1380,320,1320,320,1260,320C1200,320,1140,320,1080,320C1020,320,960,320,900,320C840,320,780,320,720,320C660,320,600,320,540,320C480,320,420,320,360,320C300,320,240,320,180,320C120,320,60,320,30,320L0,320Z"></path></svg>